Coordinates
version=1
nRows=17
nColumns=40
inDegrees=yes

Units are S.I. units (second, meters, Newtons, ...)
Angles are in degrees.

endheader
time	pelvis_tilt	pelvis_list	pelvis_rotation	pelvis_tx	pelvis_ty	pelvis_tz	hip_flexion_r	hip_adduction_r	hip_rotation_r	knee_angle_r	knee_angle_r_beta	ankle_angle_r	subtalar_angle_r	mtp_angle_r	hip_flexion_l	hip_adduction_l	hip_rotation_l	knee_angle_l	knee_angle_l_beta	ankle_angle_l	subtalar_angle_l	mtp_angle_l	lumbar_extension	lumbar_bending	lumbar_rotation	arm_flex_r	arm_add_r	arm_rot_r	elbow_flex_r	pro_sup_r	wrist_flex_r	wrist_dev_r	arm_flex_l	arm_add_l	arm_rot_l	elbow_flex_l	pro_sup_l	wrist_flex_l	wrist_dev_l
     42.50128571	     -1.87193315	     -3.08556767	     -9.72861696	      1.13236630	      0.92931936	      0.40926710	     22.66852748	     -4.08773552	     -3.90646631	     20.01425469	     20.01425469	      5.64736767	      8.28709058	      4.53554144	      7.03579340	     -3.24087771	    -12.88504345	     21.56312265	     21.56312265	     17.50927762	    -15.66677107	     -1.68346922	    -10.00300302	      6.86191688	     -0.07157897	    -22.13551914	    -11.49567035	    -10.37975179	     32.96408130	     46.24990465	      0.00000000	      0.00000000	     41.83236945	    -26.32851631	     -1.06465198	     63.74521272	     47.46401709	      0.00000000	      0.00000000
     42.52257143	     -1.92934873	     -2.97305280	    -10.46220951	      1.13380571	      0.92914642	      0.41410387	     22.31515939	     -3.77312879	     -4.08450091	     19.23098713	     19.23098713	      5.19202741	      9.96453002	      4.45334047	      6.15970408	     -3.34506866	    -13.74670999	     20.80846911	     20.80846911	     17.54158925	    -15.29799650	     -2.11905141	    -10.06685354	      6.79059294	      0.09070459	    -22.55889255	    -11.20223237	    -10.43992589	     33.69833691	     46.21368987	      0.00000000	      0.00000000	     42.50138391	    -26.77174981	     -1.99362178	     64.94238820	     47.55866882	      0.00000000	      0.00000000
     42.54385714	     -2.07950161	     -2.81041148	    -11.15929798	      1.13537006	      0.92870310	      0.41920587	     22.13141441	     -3.42854499	     -3.88000332	     18.89645275	     18.89645275	      4.78794546	     10.68123571	      3.84048564	      5.46092007	     -3.41393339	    -14.49758744	     20.18588756	     20.18588756	     17.50483218	    -15.09037349	     -2.58397125	     -9.99601740	      6.62995315	      0.19713969	    -22.73578415	    -10.92681219	    -10.43442476	     34.61101693	     46.16759340	      0.00000000	      0.00000000	     42.95883926	    -27.16298285	     -3.18700688	     66.25125582	     47.67098516	      0.00000000	      0.00000000
     42.56514286	     -2.33750018	     -2.68241821	    -11.78001450	      1.13702416	      0.92789938	      0.42443595	     22.02620935	     -3.00470634	     -3.45685110	     18.72745850	     18.72745850	      4.00607915	     10.67885510	      1.28792826	      4.97605335	     -3.55540792	    -15.08735934	     19.75268038	     19.75268038	     17.32718610	    -15.17678800	     -3.50386566	     -9.83029947	      6.60764432	     -0.14721321	    -22.68313689	    -10.91095812	     -9.84812294	     36.07289365	     46.05459460	      0.00000000	      0.00000000	     42.68223780	    -27.65154403	     -5.58087768	     68.24827245	     47.87056480	      0.00000000	      0.00000000
     42.58642857	     -2.52114218	     -2.58878502	    -12.35212136	      1.13886732	      0.92730510	      0.42984987	     21.86892146	     -2.56925446	     -2.94311908	     18.84122786	     18.84122786	      3.69602917	     10.40588719	     -0.52409210	      4.38324120	     -3.70762186	    -15.65321163	     19.31026352	     19.31026352	     17.40190315	    -15.10410084	     -3.59507983	     -9.72880145	      6.56637513	     -0.19468562	    -22.25357951	    -10.94147209	     -8.86144895	     36.37419803	     45.97178460	      0.00000000	      0.00000000	     42.84340125	    -28.00355080	     -6.79354927	     69.44031658	     47.96969277	      0.00000000	      0.00000000
     42.60771429	     -2.72334500	     -2.51525198	    -12.83570786	      1.14072058	      0.92671038	      0.43533186	     21.84147569	     -2.16149383	     -2.48588037	     19.32369657	     19.32369657	      4.11021368	     10.12337477	     -0.89908040	      3.82634136	     -3.87021351	    -16.06320098	     18.88958709	     18.88958709	     17.51460709	    -15.09507198	     -3.48399460	     -9.64101839	      6.55372950	      0.04008149	    -21.80887936	    -10.79624639	     -8.75093668	     36.56834170	     45.95930377	      0.00000000	      0.00000000	     43.39303574	    -28.19985727	     -7.10661676	     69.87255282	     48.00189380	      0.00000000	      0.00000000
     42.62900000	     -3.07723224	     -2.52376735	    -13.14568872	      1.14262785	      0.92602674	      0.44076061	     21.76526391	     -1.71346095	     -2.29352295	     19.52692102	     19.52692102	      4.63097749	     10.10737611	     -1.16203257	      3.53851939	     -4.18003503	    -16.27888919	     18.66704450	     18.66704450	     17.61345469	    -15.20267449	     -3.40991831	     -9.32579353	      6.67751949	      0.17277962	    -21.41000407	    -10.70793859	     -8.71581068	     36.72769774	     45.95337389	      0.00000000	      0.00000000	     43.71560011	    -28.29744937	     -7.22041073	     70.05552909	     48.01510714	      0.00000000	      0.00000000
     42.65028571	     -3.19817767	     -2.52335369	    -13.52206345	      1.14445754	      0.92570597	      0.44652432	     21.74693552	     -1.08279585	     -1.02638906	     20.24640447	     20.24640447	      4.93337261	      8.15892254	     -2.13557280	      2.76635911	     -4.40085686	    -16.75055055	     18.02179907	     18.02179907	     17.68479896	    -14.85154037	     -3.11641358	     -9.49981712	      6.72423594	      0.08079467	    -20.64034710	    -10.83124447	     -8.25313939	     37.30338275	     45.90439885	      0.00000000	      0.00000000	     43.53083357	    -28.33726313	     -9.21354327	     71.78245214	     48.17234948	      0.00000000	      0.00000000
     42.67157143	     -3.44995419	     -2.48532644	    -13.66173807	      1.14623227	      0.92524297	      0.45201702	     21.81672447	     -0.71893370	     -0.73192505	     20.88385271	     20.88385271	      5.56605904	      7.67125383	     -2.54824046	      2.27246208	     -4.61242401	    -16.94069244	     17.52031928	     17.52031928	     17.68728741	    -14.69547454	     -2.91137746	     -9.42947649	      6.74253120	      0.06707291	    -20.01667072	    -10.90750133	     -8.11219921	     37.57470105	     45.88901963	      0.00000000	      0.00000000	     43.79213601	    -28.43203962	     -9.55576528	     72.13284111	     48.20127750	      0.00000000	      0.00000000
     42.69285714	     -3.81613546	     -2.58608630	    -13.64263118	      1.14782098	      0.92481157	      0.45739861	     21.82431480	     -0.24516152	     -0.68391967	     21.21042080	     21.21042080	      6.12024350	      7.39207543	     -2.80118808	      1.98706001	     -5.03678338	    -16.97193959	     17.18017140	     17.18017140	     17.63050180	    -14.60763041	     -2.75157130	     -9.26623398	      6.92930919	      0.07217514	    -19.41621233	    -11.00838584	     -8.08421369	     37.82675698	     45.88151405	      0.00000000	      0.00000000	     44.05001627	    -28.36385715	     -9.64319826	     72.32968722	     48.21176475	      0.00000000	      0.00000000
     42.71414286	     -4.00235227	     -2.55503786	    -13.56340285	      1.14933589	      0.92461560	      0.46276908	     21.83594956	      0.16368421	     -0.11754227	     21.80475067	     21.80475067	      6.76660835	      6.09470420	     -2.95031347	      1.38630711	     -5.22984252	    -17.05916229	     16.49963255	     16.49963255	     17.56052544	    -14.20444585	     -2.40407723	     -9.32960453	      6.88343204	     -0.11648903	    -18.83732607	    -11.20251745	     -7.95310348	     38.32756862	     45.85736799	      0.00000000	      0.00000000	     44.13184878	    -28.34391595	    -10.20990471	     72.78059103	     48.25560056	      0.00000000	      0.00000000
     42.73542857	     -4.37778452	     -2.67153853	    -13.26114602	      1.15056005	      0.92437148	      0.46783693	     21.83972596	      0.59946493	     -0.22395501	     22.02960892	     22.02960892	      7.23081580	      5.54264334	     -3.05122350	      1.17167223	     -5.68814062	    -16.93393450	     16.12332689	     16.12332689	     17.43133605	    -13.89994680	     -2.17227217	     -9.25988397	      7.05793356	     -0.28047523	    -18.25220559	    -11.44450732	     -7.91460596	     38.73495005	     45.84296477	      0.00000000	      0.00000000	     44.20493144	    -28.12877284	    -10.37857452	     73.00948992	     48.26984579	      0.00000000	      0.00000000
     42.75671429	     -4.71595880	     -2.68099750	    -12.93081374	      1.15170836	      0.92415008	      0.47278364	     21.76422018	      0.88850237	     -0.33402748	     22.11287282	     22.11287282	      7.81493783	      5.31012147	     -3.23165197	      1.05830962	     -6.05731143	    -16.82815317	     15.93707904	     15.93707904	     17.21502386	    -13.69401443	     -2.01702748	     -9.12677417	      7.08528813	     -0.35873858	    -17.81345244	    -11.61064984	     -7.92845123	     38.96752229	     45.83770024	      0.00000000	      0.00000000	     44.24620352	    -27.91185191	    -10.35639674	     73.08512632	     48.26941271	      0.00000000	      0.00000000
     42.77800000	     -5.06629697	     -2.79995046	    -12.42420384	      1.15256813	      0.92409790	      0.47746676	     21.75281967	      1.24907178	     -0.62498220	     22.28466829	     22.28466829	      8.15218297	      4.77651822	     -3.28938247	      0.89354571	     -6.52122369	    -16.54847075	     15.54411038	     15.54411038	     17.04579492	    -13.23022818	     -1.80827593	     -9.06105252	      7.16107059	     -0.65830295	    -17.12010688	    -11.93345905	     -7.96843784	     39.43195917	     45.82656870	      0.00000000	      0.00000000	     44.19748748	    -27.42115661	    -10.29720209	     73.16832069	     48.26535181	      0.00000000	      0.00000000
     42.79928571	     -5.33899310	     -2.90759739	    -11.91080741	      1.15340613	      0.92430212	      0.48213954	     21.52247138	      1.69668671	     -0.44269235	     22.20632985	     22.20632985	      8.68104144	      3.63122027	     -2.67785955	      0.80082752	     -7.08146461	    -16.69740034	     15.53596949	     15.53596949	     17.65628117	    -11.77884796	     -0.20893531	     -9.14257280	      7.29914268	     -1.12032725	    -17.29271176	    -12.53482080	     -7.32828408	     42.51310252	     45.66895043	      0.00000000	      0.00000000	     43.47795383	    -26.98323852	    -11.71298940	     73.84048556	     48.34812131	      0.00000000	      0.00000000
     42.82057143	     -5.66642665	     -2.94546365	    -11.29880674	      1.15402369	      0.92445003	      0.48644915	     21.35907785	      1.91496145	     -0.86574217	     22.05948349	     22.05948349	      8.97598124	      3.31845266	     -2.70362141	      0.89227894	     -7.53063544	    -16.42726903	     15.53611881	     15.53611881	     17.33446281	    -11.36533298	      0.01542696	     -9.02815088	      7.28978880	     -1.30368619	    -16.69331914	    -12.85286006	     -7.35240013	     42.89172604	     45.66002461	      0.00000000	      0.00000000	     43.07413120	    -26.40789614	    -11.44975592	     73.64613876	     48.32142758	      0.00000000	      0.00000000
     42.84185714	     -5.97256322	     -3.04758244	    -10.62148857	      1.15455474	      0.92468774	      0.49063256	     21.05854073	      2.19151647	     -1.27588678	     21.71088550	     21.71088550	      9.23101645	      2.97649755	     -2.69314738	      1.22085582	     -8.15469931	    -16.18457125	     16.03892979	     16.03892979	     17.25323100	    -10.72578619	      0.28775771	     -8.95641860	      7.36730815	     -1.51012615	    -16.11368765	    -13.21059887	     -7.41293486	     43.70049104	     45.63652289	      0.00000000	      0.00000000	     42.49891446	    -25.81156598	    -11.18294623	     73.22253192	     48.28679185	      0.00000000	      0.00000000
